<svg width="22" height="18" viewBox="0 0 22 18" fill="none" xmlns="http://www.w3.org/2000/svg">
<path d="M10.9998 3.92843C12.7495 1.82965 15.4544 0.685656 17.9557 1.07557C18.3969 1.14435 18.6921 1.54509 18.6921 1.99161V12.4449C18.6921 13.0329 18.1861 13.4888 17.5981 13.4882C14.1162 13.4846 12.399 15.1122 10.9998 16.2311M10.9998 3.92843C9.25012 1.82965 6.54541 0.685657 4.04414 1.07557C3.60294 1.14435 3.30769 1.54509 3.30769 1.99162V3.54398M10.9998 3.92843V16.2311M10.9998 16.2311C9.60067 15.1122 7.88357 13.4846 4.40172 13.4882C3.81371 13.4888 3.30769 13.0329 3.30769 12.4449V3.54398M10.9998 16.2311V17M10.9998 17C12.3785 16.311 15.6097 15.3134 19.5869 16.4962C20.2708 16.6996 21 16.2138 21 15.5002V4.54398C21 3.9917 20.5523 3.54398 20 3.54398H19.0769M10.9998 17C9.62117 16.311 6.39024 15.3134 2.41308 16.4962C1.72917 16.6996 1 16.2138 1 15.5002V4.54398C1 3.9917 1.44772 3.54398 2 3.54398H3.30769" stroke="#9099A3" stroke-linecap="round" stroke-linejoin="round"/>
</svg>
